<?xml version="1.0" standalone="no"?>
<!DOCTYPE svg PUBLIC "-//W3C//DTD SVG 20010904//EN"
 "http://www.w3.org/TR/2001/REC-SVG-20010904/DTD/svg10.dtd">
<svg version="1.0" xmlns="http://www.w3.org/2000/svg"
 width="1024.000000pt" height="1024.000000pt" viewBox="0 0 1024.000000 1024.000000"
 preserveAspectRatio="xMidYMid meet">
<metadata>
Created by potrace 1.14, written by Peter Selinger 2001-2017
</metadata>
<g transform="translate(0.000000,1024.000000) scale(0.100000,-0.100000)"
fill="#000000" stroke="none">
<path d="M5050 8790 c-441 -42 -840 -234 -1124 -542 -159 -173 -268 -349 -336
-544 l-32 -91 -61 13 c-34 7 -116 13 -182 14 -536 1 -965 -442 -965 -996 0
-72 -1 -74 -27 -80 -120 -27 -193 -49 -261 -78 -250 -105 -476 -303 -612 -535
-98 -170 -152 -342 -170 -546 -25 -280 43 -543 203 -782 61 -92 216 -250 307
-314 129 -91 290 -166 433 -203 l47 -12 -62 -46 c-226 -167 -343 -384 -355
-658 -5 -107 -2 -139 16 -210 69 -278 290 -525 566 -631 186 -72 245 -82 525
-87 l255 -4 45 -55 c109 -131 314 -318 445 -404 151 -99 400 -208 560 -245 68
-15 91 -27 155 -75 157 -119 382 -215 577 -244 199 -30 443 -12 615 45 146 49
327 148 421 229 21 19 49 31 82 35 88 13 286 86 425 157 225 116 448 300 584
481 l57 76 272 4 c301 5 333 10 523 83 267 103 481 347 561 639 11 40 16 97
16 166 -1 173 -50 332 -147 479 -51 76 -183 207 -244 242 l-40 23 84 17 c301
61 570 227 745 458 73 97 174 307 204 425 117 459 -22 944 -366 1271 -101 97
-193 159 -332 226 -94 44 -269 99 -318 99 -17 0 -19 8 -19 63 0 170 -41 350
-114 497 -191 388 -637 604 -1044 505 -121 -29 -112 -28 -112 -12 0 22 -69
186 -118 282 -166 323 -527 628 -902 763 -244 88 -531 125 -780 102z m133
-316 c26 -4 44 -10 42 -14 -3 -5 3 -6 14 -3 31 8 148 -58 136 -77 -3 -4 3 -7
12 -6 9 0 18 -5 21 -13 3 -9 0 -11 -8 -6 -9 5 -11 4 -6 -4 4 -6 12 -9 17 -5 6
3 19 -2 29 -11 17 -15 19 -15 25 4 9 29 84 71 126 71 19 0 56 -13 86 -30 54
-31 70 -47 58 -58 -4 -4 -10 -2 -12 5 -2 7 -11 9 -20 6 -11 -4 -14 -2 -9 5 13
22 -23 24 -58 4 -33 -20 -35 -20 -33 -2 1 10 4 17 8 14 10 -6 39 6 39 17 0 15
-43 5 -62 -13 -20 -20 -43 -24 -32 -6 4 7 3 8 -5 4 -6 -4 -9 -12 -6 -17 4 -5
1 -9 -6 -9 -7 0 -10 -3 -7 -6 4 -3 16 0 28 6 26 14 37 6 20 -15 -10 -12 -9
-16 4 -21 21 -8 21 -44 0 -44 -9 0 -12 5 -8 12 4 6 3 8 -3 5 -6 -4 -14 -19
-17 -33 -8 -29 10 -58 28 -47 6 4 21 9 34 11 16 2 22 -2 22 -18 0 -14 -7 -20
-24 -20 -30 0 -75 -74 -50 -84 9 -3 14 1 14 13 0 10 7 18 16 18 12 0 15 -9 11
-37 -2 -21 -7 -42 -10 -48 -8 -12 15 -22 49 -22 20 0 24 -5 24 -30 0 -23 -5
-30 -19 -30 -11 0 -21 -4 -23 -9 -1 -5 -14 -12 -28 -16 -21 -5 -26 -2 -28 17
-7 70 -22 90 -22 30 0 -31 -5 -44 -19 -52 -16 -8 -20 -6 -24 8 -4 14 -5 13 -6
-3 0 -12 5 -27 12 -34 10 -10 9 -11 -4 -6 -12 4 -25 -5 -45 -32 -16 -21 -43
-55 -61 -75 -39 -45 -68 -101 -77 -149 -6 -33 -11 -38 -43 -44 -38 -7 -49 -1
-55 30 -2 11 -10 19 -16 18 -7 -2 -12 5 -12 15 0 10 -4 22 -9 27 -5 6 -12 21
-14 35 -3 14 -3 -7 0 -46 l5 -71 -32 -6 c-18 -4 -35 -5 -39 -2 -4 2 -13 28
-20 58 -8 38 -26 71 -59 113 -68 85 -107 138 -108 147 -1 4 -3 10 -4 15 -1 4
-2 10 -1 15 0 4 -4 7 -9 7 -6 0 -8 -12 -5 -28 l4 -27 -67 -3 c-43 -2 -62 1
-53 6 19 13 -55 21 -95 10 -27 -7 -32 -14 -37 -48 -3 -22 1 -57 9 -79 8 -22
12 -60 10 -84 -5 -52 -46 -157 -82 -209 -24 -34 -128 -129 -111 -101 4 6 3 14
-2 17 -12 8 -72 -24 -66 -35 4 -5 -1 -9 -9 -9 -9 0 -16 5 -16 11 0 5 -5 7 -10
4 -6 -4 -7 -12 -4 -18 4 -7 4 -9 -1 -5 -4 4 -16 3 -25 -2 -12 -7 -21 -6 -29 4
-6 7 -9 15 -6 18 3 2 -2 5 -10 5 -8 0 -12 -4 -10 -8 3 -3 -4 -9 -15 -12 -13
-3 -18 -1 -13 6 4 7 0 8 -11 4 -11 -4 -15 -3 -10 4 4 7 0 9 -12 5 -22 -6 -59
18 -49 33 3 7 0 8 -9 5 -18 -7 -49 37 -40 59 3 9 -1 26 -9 38 -9 12 -13 28
-10 35 3 9 -2 14 -16 14 -12 0 -21 -4 -21 -10 0 -5 4 -10 10 -10 5 0 17 -14
26 -31 12 -24 13 -34 4 -43 -8 -8 -9 -6 -4 8 5 13 4 17 -4 12 -12 -7 -16 5
-13 33 2 7 -2 10 -8 7 -27 -17 -35 119 -10 180 7 16 11 33 10 37 -1 5 3 6 9 2
5 -3 10 -2 10 3 0 15 65 82 79 82 7 0 9 5 5 12 -5 8 -2 9 9 5 10 -3 17 -3 17
1 0 5 26 8 59 8 56 -1 58 0 45 19 -16 23 -18 39 -4 30 6 -3 10 1 10 9 0 22 17
20 23 -3 5 -19 54 -35 63 -20 3 5 13 9 22 8 11 0 12 -3 5 -6 -7 -2 -13 -9 -13
-14 0 -4 7 -6 15 -3 8 4 15 10 15 15 0 13 -56 39 -85 39 -39 0 -30 14 27 41
l52 24 16 75 c16 74 58 176 68 166 3 -3 -1 -12 -8 -21 -7 -9 -11 -18 -8 -20 5
-5 22 25 32 57 4 13 14 17 35 14 20 -2 28 1 25 9 -3 6 -11 12 -19 12 -8 0 -11
-5 -8 -10 4 -6 1 -7 -6 -3 -32 20 172 146 293 181 128 37 229 50 309 39z m502
-133 c-3 -6 3 -14 12 -20 16 -9 16 -10 1 -11 -9 0 -20 5 -23 10 -4 6 -16 8
-28 4 -22 -6 -22 -6 -2 10 22 17 50 22 40 7z m91 -111 c-4 -29 -1 -42 10 -48
14 -8 13 -10 0 -21 -9 -8 -16 -22 -16 -32 0 -11 -4 -19 -10 -19 -16 0 -11 32
7 45 13 9 13 14 3 20 -9 5 -11 4 -6 -3 4 -7 -4 -14 -21 -18 -18 -5 -28 -3 -31
6 -4 10 -6 9 -13 -1 -5 -8 -9 -9 -9 -4 0 6 18 29 40 50 22 21 40 45 40 52 0 7
2 13 5 13 3 0 4 -18 1 -40z m194 -2 c36 -21 28 -38 -9 -19 -27 15 -92 15 -71
0 12 -8 10 -9 -7 -4 -13 3 -39 1 -58 -6 -19 -7 -38 -9 -42 -5 -5 5 -2 11 5 13
6 3 9 10 5 16 -3 7 -3 9 1 5 4 -3 19 0 34 8 40 21 102 17 142 -8z m-53 -131
c9 -7 10 -14 2 -30 -9 -17 -9 -19 4 -14 9 3 20 0 25 -6 16 -20 24 -75 13 -94
-9 -16 -10 -16 -11 5 0 12 -4 22 -8 22 -4 0 -6 -16 -4 -36 3 -26 1 -35 -9 -34
-32 5 -40 0 -34 -20 6 -19 -8 -29 -18 -12 -2 4 -2 2 -1 -5 2 -7 -1 -15 -7 -19
-12 -7 -15 -5 -23 22 -7 23 18 59 35 49 5 -4 9 -1 9 5 0 6 4 9 10 5 5 -3 4 8
-2 26 -9 26 -8 33 6 41 9 5 16 15 16 22 0 16 -56 14 -72 -2 -17 -17 -33 -15
-18 3 7 8 19 15 26 15 8 0 14 4 14 9 0 13 -29 41 -42 41 -6 0 0 -9 13 -20 13
-11 20 -19 14 -18 -20 4 -55 -14 -55 -28 0 -9 -7 -14 -17 -12 -23 4 -28 25 -6
31 10 3 -8 5 -39 6 -44 1 -58 5 -58 16 0 11 11 15 40 15 24 0 40 5 40 12 0 6
3 9 6 6 3 -4 24 2 46 12 41 18 68 15 105 -13z m-1626 -48 c28 -15 59 -42 59
-52 0 -4 -10 2 -22 13 -45 42 -117 38 -162 -8 -31 -33 -44 -92 -19 -92 13 0
13 -3 3 -15 -9 -10 -9 -15 -1 -15 6 0 11 -12 11 -26 0 -17 4 -23 13 -18 6 4 4
-1 -5 -12 -14 -14 -21 -15 -30 -6 -9 9 -9 12 0 12 7 0 12 9 12 21 0 15 -5 19
-19 14 -11 -3 -26 1 -36 11 -13 14 -21 15 -41 5 -14 -6 -22 -16 -19 -22 5 -7
11 -7 19 0 9 8 13 7 13 -2 0 -7 -12 -13 -28 -12 -15 0 -25 3 -22 7 6 11 -2 10
-30 -3 -13 -6 -32 -24 -41 -41 -10 -16 -20 -27 -23 -24 -10 9 31 68 68 98 22
18 54 32 78 35 29 4 41 10 41 22 0 27 38 80 72 101 37 22 79 26 109 9z m1939
-4 c39 -20 38 -26 0 -12 -21 8 -43 8 -82 0 -60 -12 -82 -6 -47 13 32 18 94 17
129 -1z m-2074 -99 c0 -14 -5 -21 -9 -17 -4 4 -5 15 -1 24 9 24 12 21 10 -7z
m2072 -47 c2 -18 12 -29 36 -37 44 -16 73 -15 80 4 5 13 11 11 41 -12 37 -28
42 -43 23 -73 -19 -30 12 -94 51 -106 30 -9 32 -12 29 -55 -2 -31 -8 -45 -18
-46 -8 -1 -21 -2 -28 -3 -7 0 -20 -17 -29 -37 -14 -28 -15 -39 -5 -54 17 -28
15 -40 -10 -67 -24 -26 -40 -28 -67 -11 -29 18 -101 -16 -101 -49 0 -21 -4
-23 -56 -23 -50 0 -55 2 -49 19 7 22 -21 45 -69 57 -22 5 -32 3 -43 -12 -16
-22 -35 -13 -67 30 -17 22 -18 30 -8 46 25 41 0 100 -42 100 -27 0 -36 17 -36
66 0 30 3 34 25 34 20 0 30 10 50 49 21 43 22 51 10 61 -22 18 -18 38 13 65
32 29 48 31 60 8 9 -15 12 -15 45 0 19 9 40 17 46 17 6 0 11 11 11 23 0 33 8
38 60 35 40 -3 45 -6 48 -29z m-388 11 c0 -5 -2 -10 -4 -10 -3 0 -8 5 -11 10
-3 6 -1 10 4 10 6 0 11 -4 11 -10z m-1430 -24 c0 -9 -8 -12 -27 -8 l-28 6 25
7 c14 4 26 7 28 8 1 1 2 -5 2 -13z m1375 -16 c-3 -5 -10 -10 -16 -10 -5 0 -9
5 -9 10 0 6 7 10 16 10 8 0 12 -4 9 -10z m-1660 -30 c-3 -5 -11 -10 -16 -10
-6 0 -7 5 -4 10 3 6 11 10 16 10 6 0 7 -4 4 -10z m-116 -39 c-6 -2 -18 4 -27
13 -15 15 -15 15 10 4 15 -7 23 -15 17 -17z m-92 -63 c-3 -8 -6 -5 -6 6 -1 11
2 17 5 13 3 -3 4 -12 1 -19z m1004 -196 c16 -10 29 -20 29 -24 0 -3 -15 -19
-34 -35 -19 -15 -40 -41 -46 -58 l-11 -29 -24 39 c-13 22 -38 49 -54 60 -17
11 -31 22 -31 25 0 3 15 12 33 20 18 8 41 31 52 52 l20 37 18 -35 c10 -20 32
-43 48 -52z m367 -21 c20 -12 -20 -21 -99 -21 -50 0 -68 4 -73 15 -4 13 8 15
77 15 45 0 88 -4 95 -9z m435 -29 c27 -24 22 -77 -10 -102 -32 -25 -69 -20
-95 12 -60 69 35 151 105 90z m-442 -26 c-17 -20 -93 -29 -125 -15 -45 21 -29
29 55 29 68 0 80 -2 70 -14z m2059 -23 c303 -62 529 -332 547 -652 l6 -104
-52 6 c-50 5 -83 17 -49 17 24 0 31 71 13 148 -9 37 -36 108 -60 158 -139 288
-480 427 -769 315 -15 -6 -39 -20 -52 -30 -20 -16 -21 -20 -8 -25 10 -4 13 -2
8 6 -4 7 -3 8 4 4 6 -4 23 1 36 10 14 9 31 14 38 11 8 -4 7 -6 -4 -6 -9 -1
-20 -10 -23 -21 -5 -15 -12 -19 -25 -15 -10 3 -22 0 -26 -6 -5 -8 -3 -9 6 -4
9 5 11 4 6 -3 -4 -7 -15 -12 -25 -12 -22 0 -44 23 -33 35 4 5 1 5 -6 1 -9 -6
-10 -11 -3 -20 15 -18 1 -28 -18 -13 -14 11 -14 10 -2 -5 7 -10 17 -15 22 -12
23 14 6 -16 -18 -32 -24 -15 -26 -15 -14 -1 22 27 -4 19 -33 -10 -19 -19 -25
-21 -20 -8 5 13 4 16 -5 11 -7 -4 -10 -13 -8 -19 5 -14 -24 -67 -36 -67 -5 0
-3 -8 4 -17 8 -9 9 -14 3 -10 -15 9 -24 -45 -24 -143 0 -85 -18 -131 -63 -164
-22 -16 -50 -22 -125 -27 l-97 -7 -42 41 c-24 23 -43 44 -43 47 0 3 54 5 120
5 155 0 153 -2 161 146 6 100 10 117 42 183 83 167 259 285 456 305 83 8 101
7 211 -16z m-3910 -33 c19 -4 47 -11 61 -14 22 -5 25 -10 21 -31 -4 -23 -7
-24 -46 -17 -22 4 -88 7 -146 7 -116 -1 -197 -18 -285 -61 -44 -22 -53 -30
-44 -41 9 -10 7 -13 -7 -14 -11 -1 -22 -1 -26 0 -5 0 -8 -3 -8 -9 0 -6 -5 -10
-11 -10 -5 0 -7 6 -3 13 4 6 -2 3 -13 -8 -19 -18 -20 -21 -5 -32 19 -16 12
-16 -23 -3 -17 7 -24 7 -20 0 3 -6 -1 -10 -9 -10 -10 0 -13 -6 -9 -15 5 -14 8
-14 27 2 11 10 9 4 -7 -13 -15 -17 -25 -33 -21 -36 3 -3 0 -9 -7 -14 -7 -4
-10 -3 -6 3 4 6 1 13 -7 16 -10 4 -13 -1 -11 -18 2 -21 -1 -23 -16 -14 -23 12
-24 6 -3 -15 14 -15 14 -16 -1 -16 -9 0 -13 -5 -10 -11 4 -6 -3 -22 -16 -35
-22 -24 -24 -24 -38 -7 -12 16 -13 16 -8 1 3 -10 0 -23 -6 -30 -45 -45 -74
-212 -57 -325 12 -79 63 -250 81 -268 18 -18 9 -35 -21 -35 -27 0 -32 7 -70
83 -97 198 -93 417 11 618 140 269 471 426 759 359z m-112 -117 c-10 -2 -28
-2 -40 0 -13 2 -5 4 17 4 22 1 32 -1 23 -4z m-229 -37 c-2 -2 -15 -9 -29 -16
-23 -12 -24 -12 -11 3 7 10 20 17 29 17 8 0 13 -2 11 -4z m556 -45 c174 -79
178 -326 7 -403 l-44 -20 4 -89 c3 -81 5 -91 31 -116 26 -26 33 -28 132 -31
58 -2 105 -6 105 -8 0 -2 -12 -22 -26 -44 l-27 -40 -88 0 c-81 0 -90 2 -120
28 -18 15 -29 21 -25 13 6 -10 5 -12 -2 -7 -7 4 -24 28 -38 53 -23 38 -28 60
-32 144 l-5 99 -46 21 c-89 39 -134 107 -134 200 2 159 165 265 308 200z
m1703 -12 c386 -42 719 -221 966 -519 130 -156 202 -287 265 -477 62 -185 81
-298 81 -468 0 -287 -79 -536 -251 -795 -81 -123 -282 -326 -399 -402 -170
-112 -364 -191 -544 -223 -115 -20 -371 -20 -493 0 -319 52 -641 242 -866 513
-169 203 -267 408 -324 682 -24 116 -24 353 1 470 48 227 155 477 269 630 260
349 625 555 1042 590 135 11 148 11 253 -1z m1453 -52 l-24 -22 19 27 c10 14
21 24 23 22 3 -3 -6 -15 -18 -27z m-2654 -43 c20 -20 24 -31 19 -57 -13 -68
-95 -92 -136 -40 -60 77 47 166 117 97z m2193 6 c11 -11 20 -33 20 -50 0 -62
-73 -92 -118 -50 -46 43 -15 120 48 120 17 0 39 -9 50 -20z m1117 -49 l42 -45
-36 -50 c-20 -28 -69 -90 -110 -138 -61 -72 -81 -89 -116 -99 -34 -9 -63 -34
-167 -142 -69 -72 -143 -143 -164 -159 -37 -27 -44 -28 -155 -28 -128 0 -114
-7 -163 76 l-19 32 133 1 c153 2 125 -13 278 152 l108 116 -29 58 c-33 65 -37
117 -14 172 30 73 92 113 172 113 80 0 83 -13 14 -51 -96 -50 -117 -88 -86
-149 l15 -29 84 87 c46 48 96 102 111 120 31 37 31 37 102 -37z m-4192 -202
c80 -88 83 -160 10 -238 l-43 -46 24 -52 c18 -42 27 -52 41 -47 14 5 15 4 4
-4 -11 -8 -1 -33 53 -133 91 -169 92 -169 222 -169 l104 0 0 -27 c0 -71 -3
-73 -104 -73 -129 1 -164 11 -206 59 -38 43 -203 334 -203 357 0 7 -4 11 -9 8
-4 -3 -13 6 -20 20 -8 18 -19 26 -37 26 -39 0 -76 23 -74 46 1 10 0 13 -3 7
-9 -20 -31 -15 -48 9 -10 14 -12 27 -6 38 9 17 -14 110 -27 110 -3 0 -3 -6 0
-12 2 -7 1 -22 -3 -33 -6 -17 -8 -15 -18 15 -5 19 -13 62 -16 95 l-7 59 28
-24 c99 -86 133 -125 133 -152 0 -27 2 -28 45 -28 64 0 108 24 102 55 -2 14
-1 22 4 19 19 -11 -8 77 -43 141 -21 39 -38 76 -38 83 0 16 81 -50 135 -109z
m4452 59 c-3 -8 -6 -5 -6 6 -1 11 2 17 5 13 3 -3 4 -12 1 -19z m61 -13 c-3 -3
-9 2 -12 12 -6 14 -5 15 5 6 7 -7 10 -15 7 -18z m-43 -15 c3 -5 1 -10 -4 -10
-6 0 -11 5 -11 10 0 6 2 10 4 10 3 0 8 -4 11 -10z m40 -11 c11 -16 1 -19 -13
-3 -7 8 -8 14 -3 14 5 0 13 -5 16 -11z m-38 -41 c-3 -8 -6 -5 -6 6 -1 11 2 17
5 13 3 -3 4 -12 1 -19z m38 -33 c5 0 11 -9 12 -20 l3 -20 -9 20 c-8 17 -10 15
-11 -15 0 -19 -3 -55 -6 -80 -3 -35 -2 -40 6 -22 10 23 20 29 20 13 0 -6 -11
-22 -25 -36 l-24 -27 0 101 c1 75 4 99 12 94 7 -4 16 -8 22 -8z m12 -187 c-3
-8 -6 -5 -6 6 -1 11 2 17 5 13 3 -3 4 -12 1 -19z m-217 -2 c0 -2 -16 -20 -35
-40 -28 -29 -42 -36 -72 -36 -27 0 -46 -8 -67 -26 -48 -45 -56 -79 -56 -234 0
-183 -17 -228 -102 -271 -33 -17 -61 -19 -263 -19 l-226 0 3 48 3 47 222 5
c287 6 266 -10 274 213 5 167 13 200 58 251 19 22 66 47 106 57 32 8 155 12
155 5z m160 -73 c-11 -17 -11 -17 -6 0 3 10 7 31 7 45 l2 27 4 -27 c2 -15 -1
-35 -7 -45z m40 52 c4 3 6 -4 3 -16 -4 -16 -8 -17 -14 -7 -5 7 -8 20 -8 28 0
10 2 11 6 2 2 -6 8 -10 13 -7z m370 -225 c142 -23 295 -91 430 -190 378 -282
519 -808 337 -1258 -114 -282 -382 -499 -702 -568 -38 -9 -137 -18 -220 -20
-82 -2 -181 -6 -218 -8 l-68 -3 3 46 3 46 65 2 c36 1 133 4 215 6 291 9 481
90 675 286 73 73 94 102 138 191 50 103 85 216 95 315 l6 50 -21 -65 c-12 -36
-26 -68 -32 -72 -8 -6 -8 -8 1 -8 13 0 -51 -150 -69 -161 -5 -3 -9 -10 -7 -14
5 -16 -108 -153 -177 -215 -132 -116 -280 -187 -439 -210 -38 -5 -217 -10
-397 -10 l-328 0 0 35 0 35 338 0 c359 0 418 6 532 52 253 102 430 296 496
543 27 100 24 291 -5 399 -11 44 -19 82 -16 84 3 3 5 -3 6 -14 0 -12 2 -14 6
-5 5 11 7 11 14 0 7 -11 9 -10 9 4 0 19 15 23 26 6 3 -6 1 -15 -6 -19 -8 -5
-9 -10 -2 -14 6 -4 9 -14 6 -24 -5 -13 -4 -14 4 -3 8 11 11 10 15 -5 3 -10 4
-3 2 16 -2 19 -11 54 -19 78 -20 53 -93 198 -109 214 -7 7 -24 29 -39 49 -40
53 -138 144 -154 143 -8 -1 -11 2 -9 7 14 21 -173 128 -295 168 -97 32 -192
40 -440 41 -220 0 -284 -5 -260 -20 8 -5 7 -9 -4 -13 -13 -5 -16 1 -16 31 0
20 -3 47 -6 60 l-6 22 288 0 c159 0 318 -5 354 -10z m-172 -125 c3 -3 -100 -4
-229 -3 -135 1 -202 4 -159 7 84 7 381 3 388 -4z m-4957 -68 c57 -37 69 -75
69 -210 0 -205 3 -207 320 -207 l230 0 0 -40 c0 -28 -5 -42 -17 -48 -22 -10
-495 -3 -488 8 3 5 -5 6 -17 2 -14 -3 -19 -1 -14 6 4 8 2 10 -7 6 -9 -3 -25 8
-41 28 -46 62 -56 99 -56 220 0 185 8 182 -372 175 -264 -4 -288 -6 -356 -29
-40 -13 -70 -27 -66 -31 4 -4 -2 -7 -13 -7 -27 0 -35 -10 -22 -27 13 -15 33
-18 24 -3 -4 6 8 16 26 24 20 8 27 15 18 18 -8 3 -2 5 13 4 32 -1 27 -12 -15
-31 l-32 -14 30 5 c22 3 17 0 -17 -14 -26 -11 -64 -30 -84 -43 -24 -14 -35
-17 -30 -8 5 9 2 8 -6 -2 -11 -13 -15 -14 -25 -3 -10 10 -8 14 8 19 15 5 18
10 10 18 -6 6 -12 9 -13 6 -2 -2 -14 -17 -28 -34 -14 -16 -18 -24 -9 -17 14
10 18 10 22 -3 4 -8 3 -14 -1 -14 -20 3 -33 -2 -27 -11 3 -5 0 -7 -8 -4 -8 3
-18 0 -23 -7 -4 -8 -3 -10 4 -5 8 4 10 2 6 -8 -3 -8 -11 -13 -18 -10 -7 3 -21
-5 -32 -17 -11 -14 -13 -19 -4 -14 13 8 13 6 1 -8 -7 -9 -18 -14 -24 -10 -5 3
-8 2 -4 -3 3 -5 -2 -18 -10 -29 -15 -19 -15 -19 -8 5 7 22 6 23 -9 8 -10 -10
-13 -24 -9 -35 6 -16 5 -17 -12 -3 -17 14 -18 14 -6 -9 7 -13 9 -21 3 -17 -5
3 -13 -1 -16 -10 -3 -8 -10 -13 -14 -10 -11 7 -29 -44 -28 -77 1 -20 -2 -26
-12 -22 -11 4 -13 -1 -8 -21 6 -24 5 -25 -8 -11 -13 13 -14 20 -3 46 7 17 16
29 19 26 2 -3 5 1 6 8 0 6 3 23 7 37 6 24 6 24 -9 6 -8 -10 -13 -22 -11 -27 3
-4 2 -9 -2 -11 -12 -5 -44 -78 -34 -78 4 0 13 -11 19 -25 11 -24 8 -29 -18
-27 -3 0 -4 -17 -2 -39 2 -21 0 -39 -5 -39 -10 0 -12 -18 -12 -118 0 -40 4
-81 9 -90 5 -9 16 -48 25 -87 61 -262 278 -473 559 -545 70 -18 111 -20 343
-20 326 0 303 -12 303 155 0 126 7 150 57 197 52 49 89 58 251 58 l148 0 54
35 c70 45 113 57 202 53 l72 -3 23 -40 c12 -22 23 -43 23 -47 0 -5 -49 -8
-108 -8 l-109 0 -48 -37 -48 -38 -181 -6 c-100 -3 -188 -9 -197 -13 -37 -16
-52 -66 -58 -191 -10 -209 -9 -209 -401 -202 -254 4 -294 7 -365 27 -403 111
-652 451 -632 860 9 184 55 310 165 460 117 158 327 279 537 309 33 5 184 9
336 10 271 1 277 1 310 -22z m5499 -83 c0 -8 -19 -13 -24 -6 -3 5 1 9 9 9 8 0
15 -2 15 -3z m-6071 -29 c-3 -2 -34 -9 -70 -14 -35 -6 -75 -13 -89 -17 -25 -6
-25 -6 -4 9 11 9 45 18 75 20 30 2 63 4 73 5 11 1 17 0 15 -3z m314 -2 c-7 -2
-19 -2 -25 0 -7 3 -2 5 12 5 14 0 19 -2 13 -5z m120 0 c-7 -2 -21 -2 -30 0
-10 3 -4 5 12 5 17 0 24 -2 18 -5z m5648 -16 c-6 -8 -7 -18 -3 -22 4 -5 1 -5
-6 -1 -10 6 -10 11 -1 22 6 8 14 14 16 14 3 0 0 -6 -6 -13z m-626 -37 c35 -36
44 -40 89 -40 46 0 54 4 93 42 l43 42 62 -20 63 -20 6 -59 c5 -47 12 -63 30
-75 13 -8 37 -27 54 -42 l31 -27 30 20 c16 10 37 19 47 19 21 0 110 -117 100
-134 -3 -6 -15 -23 -25 -39 -19 -27 -19 -29 -1 -97 17 -68 19 -71 56 -82 47
-14 54 -28 49 -100 l-4 -56 -46 -9 -47 -8 -14 -63 c-14 -60 -14 -64 8 -103
l23 -41 -37 -54 c-21 -30 -41 -56 -44 -59 -4 -2 -28 7 -53 20 l-46 23 -19 -20
c-10 -11 -35 -31 -55 -44 -34 -22 -38 -29 -38 -67 0 -23 -4 -47 -8 -53 -4 -6
-33 -20 -65 -30 l-59 -18 -35 42 c-34 42 -35 42 -103 42 l-67 0 -27 -40 c-14
-22 -29 -40 -31 -40 -3 0 -32 7 -65 17 l-60 16 0 59 c0 32 -4 58 -9 58 -5 0
-31 16 -56 36 l-47 36 -49 -20 -48 -21 -41 57 c-43 61 -44 79 -8 118 19 21 19
23 1 85 -18 61 -21 64 -58 73 -22 5 -43 14 -47 20 -4 6 -8 38 -8 71 l0 60 48
17 c46 17 48 18 64 80 17 63 17 63 -8 99 -13 19 -24 41 -24 47 0 19 79 122 93
122 7 -1 23 -7 37 -15 38 -22 56 -18 107 21 46 35 48 39 53 97 l5 60 50 18
c68 24 66 24 110 -21z m670 -20 c10 -11 16 -20 13 -20 -3 0 -13 9 -23 20 -10
11 -16 20 -13 20 3 0 13 -9 23 -20z m62 -65 c0 -8 -4 -12 -9 -9 -5 3 -6 10 -3
15 9 13 12 11 12 -6z m-6031 -71 c58 -20 148 -79 189 -125 48 -54 73 -93 67
-108 -3 -8 0 -11 7 -7 7 5 9 -2 5 -23 -5 -21 -1 -40 12 -58 12 -20 13 -24 2
-16 -12 10 -18 10 -34 -2 -18 -14 -18 -14 3 -15 12 0 25 -4 28 -10 3 -5 -1
-10 -9 -10 -9 0 -16 -4 -16 -10 0 -26 45 4 54 35 3 11 4 8 2 -8 -2 -15 1 -30
5 -33 12 -7 11 -24 -2 -24 -5 0 -7 6 -3 13 6 9 5 9 -8 0 -8 -7 -18 -10 -22 -6
-4 4 -4 -1 0 -11 5 -14 9 -15 15 -4 7 10 9 10 9 0 0 -9 5 -10 19 -2 13 6 154
10 390 10 l371 0 0 -50 0 -50 -375 0 -375 0 10 25 c6 16 6 25 0 25 -6 0 -10
-3 -11 -7 -8 -74 -8 -83 3 -77 8 5 9 0 5 -17 -4 -13 -7 -31 -8 -39 0 -10 -3
-8 -9 5 -8 20 -9 20 -9 -1 -1 -11 -8 -29 -16 -40 -14 -18 -14 -18 -15 9 0 16
-4 26 -10 22 -5 -3 -10 -15 -10 -26 0 -13 -7 -19 -21 -19 -11 0 -17 -4 -14
-10 3 -5 1 -10 -5 -10 -6 0 -8 -5 -5 -10 4 -6 3 -10 -2 -9 -20 4 -24 -2 -12
-18 13 -15 12 -15 -10 -2 -18 11 -25 11 -28 2 -6 -16 -33 -17 -33 -1 0 6 -3 9
-6 6 -3 -4 -1 -16 6 -27 7 -14 7 -21 0 -21 -5 0 -10 5 -10 10 0 12 -22 9 -31
-4 -4 -4 -6 15 -5 43 1 54 8 60 49 40 21 -9 21 -9 4 5 -16 12 -18 25 -14 69 3
44 2 54 -10 50 -10 -4 -11 -9 -2 -19 9 -11 7 -14 -10 -14 -12 0 -20 4 -17 9 8
12 -20 22 -41 15 -16 -5 -16 -4 0 6 10 6 24 9 32 7 8 -4 15 3 19 16 5 18 8 20
16 7 6 -9 10 -10 10 -3 0 21 -23 27 -36 8 -9 -12 -21 -16 -39 -13 -30 6 -42
-7 -24 -28 7 -9 20 -12 32 -8 13 4 17 2 13 -5 -4 -6 -14 -11 -22 -11 -8 0 -17
-7 -20 -15 -3 -8 -21 -19 -40 -25 -18 -6 -36 -15 -39 -20 -7 -11 33 -4 49 9 7
6 17 5 29 -3 23 -18 22 -29 -2 -16 -29 15 -38 12 -15 -5 10 -8 14 -15 9 -15
-6 0 -16 5 -21 10 -14 14 -47 1 -40 -15 3 -8 1 -26 -4 -42 -9 -27 -9 -27 -9
-3 1 14 1 30 0 35 -1 10 -22 -21 -40 -62 -5 -12 -18 -26 -27 -31 -15 -8 -16
-13 -6 -25 10 -12 10 -17 1 -23 -7 -4 -9 -3 -5 4 3 6 -2 15 -11 21 -17 9 -17
10 0 23 16 12 12 13 -30 12 -63 -2 -65 -2 -59 -13 7 -11 -22 -36 -31 -27 -3 3
-2 6 4 6 6 0 13 10 15 23 4 19 0 22 -26 24 -28 1 -29 1 -8 -7 12 -5 22 -12 22
-15 0 -3 -15 1 -33 8 l-33 14 -18 -44 c-10 -24 -20 -42 -22 -40 -2 2 5 25 16
50 14 32 25 44 35 41 8 -4 15 -1 15 5 0 16 -29 26 -41 14 -5 -5 -11 -20 -14
-33 -5 -28 -15 -39 -15 -17 0 8 -7 23 -16 32 -9 9 -14 18 -11 21 2 3 12 -2 21
-11 15 -15 16 -14 16 9 0 14 4 26 9 26 5 0 11 7 15 15 3 9 0 15 -9 15 -8 0
-15 -7 -15 -15 0 -16 -25 -21 -34 -6 -3 5 -19 14 -35 19 -26 9 -29 8 -24 -6 6
-15 5 -15 -11 -3 -16 13 -63 25 -51 13 2 -3 0 -13 -6 -23 -6 -13 -6 -19 1 -19
5 0 10 7 10 17 0 9 3 14 6 10 3 -3 3 -15 -1 -27 -6 -17 -9 -19 -22 -9 -12 10
-17 10 -25 -2 -8 -11 -9 -11 -4 4 6 20 -4 22 -24 5 -12 -11 -12 -10 0 5 7 10
19 16 26 13 7 -3 15 2 18 10 10 25 7 34 -9 34 -8 0 -15 -5 -15 -11 0 -5 6 -7
13 -3 9 5 9 3 -1 -7 -11 -12 -14 -12 -22 1 -9 13 -10 13 -10 0 0 -13 -1 -13
-10 0 -7 11 -5 19 7 28 15 11 15 12 1 12 -9 0 -20 -5 -23 -10 -9 -14 -27 -1
-21 15 3 8 0 15 -7 18 -18 6 -22 212 -4 261 9 27 15 35 19 24 4 -9 0 -28 -8
-43 -8 -15 -14 -35 -13 -44 0 -9 6 -3 14 14 8 17 14 23 15 14 0 -9 7 -19 15
-23 20 -7 19 8 -1 28 -8 9 -14 22 -11 29 2 6 0 22 -4 35 -6 15 -5 21 1 17 6
-3 10 -1 10 5 0 6 5 8 10 5 6 -3 10 0 11 7 3 46 8 62 22 73 10 7 17 15 17 18
0 18 124 129 169 152 110 55 256 67 367 29z m6151 -56 c-3 -8 -6 -5 -6 6 -1
11 2 17 5 13 3 -3 4 -12 1 -19z m9 -55 c-5 -16 -3 -29 4 -33 7 -4 10 -16 8
-26 -4 -15 -8 -12 -20 16 -8 19 -11 37 -6 38 4 2 8 10 8 18 0 8 3 14 6 14 3 0
3 -12 0 -27z m24 -10 c-11 -17 -11 -17 -6 0 3 10 6 24 7 30 0 9 2 9 5 0 3 -7
0 -20 -6 -30z m-1666 -24 c35 -27 37 -90 4 -113 -54 -38 -128 -3 -128 60 0 37
38 74 75 74 12 0 34 -9 49 -21z m-4224 -145 c0 -22 -16 -17 -17 6 -1 11 2 18
8 15 5 -4 9 -13 9 -21z m4000 -153 c22 -11 54 -46 86 -95 82 -123 71 -116 196
-116 l108 0 0 -50 0 -50 -102 0 c-57 0 -120 5 -140 10 -47 13 -101 58 -94 77
3 8 2 12 -3 9 -5 -4 -23 18 -39 46 -41 74 -69 97 -120 100 l-42 3 0 43 0 42
58 0 c37 0 70 -7 92 -19z m-4890 -231 c6 -11 8 -20 6 -20 -3 0 -10 9 -16 20
-6 11 -8 20 -6 20 3 0 10 -9 16 -20z m130 -18 c0 -15 -2 -15 -10 -2 -13 20
-13 33 0 25 6 -3 10 -14 10 -23z m50 -3 c0 -5 -6 -9 -13 -9 -8 0 -19 -11 -25
-24 -6 -14 -21 -30 -34 -37 l-23 -11 22 21 c13 12 30 35 38 52 14 27 35 32 35
8z m-95 -49 c3 -5 -1 -10 -10 -10 -9 0 -13 5 -10 10 3 6 8 10 10 10 2 0 7 -4
10 -10z m95 -1 c0 -5 6 -6 14 -3 21 8 27 -10 11 -32 -13 -18 -14 -18 -8 6 5
24 5 25 -11 5 -15 -19 -16 -19 -9 -1 4 12 3 17 -4 13 -6 -4 -13 -1 -16 6 -3 8
1 14 9 14 8 0 14 -4 14 -8z m481 -21 c-11 -10 -13 -10 -7 0 4 6 2 12 -4 12 -6
0 -8 5 -4 11 4 8 9 8 17 0 8 -8 7 -14 -2 -23z m183 17 c11 -9 14 -15 7 -15 -7
0 -19 7 -27 15 -20 19 -5 19 20 0z m-446 -32 c-2 -9 -8 -18 -15 -20 -7 -3 -9
3 -6 16 6 25 26 28 21 4z m-248 3 c0 -2 -8 -10 -17 -17 -16 -13 -17 -12 -4 4
13 16 21 21 21 13z m275 -6 c-3 -6 1 -13 9 -16 13 -5 12 -10 -5 -34 -18 -23
-19 -31 -9 -51 13 -24 13 -24 -7 -4 -20 20 -20 20 -1 48 25 35 15 48 -12 16
l-20 -24 17 38 c9 20 21 37 25 37 5 0 6 -5 3 -10z m415 -5 c0 -1 -6 -7 -13
-13 -10 -8 -13 -6 -13 7 0 11 6 17 13 14 7 -3 13 -6 13 -8z m-172 -21 c7 -14
8 -23 2 -19 -15 9 -32 45 -22 45 5 0 14 -12 20 -26z m4123 -57 l34 -27 -39
-31 c-21 -18 -44 -46 -51 -62 l-13 -30 -16 34 c-9 19 -32 45 -51 58 -19 13
-35 27 -35 31 0 5 15 17 34 28 19 11 42 35 51 52 l17 32 18 -29 c10 -16 33
-42 51 -56z m-4578 48 c-3 -9 -8 -14 -10 -11 -3 3 -2 9 2 15 9 16 15 13 8 -4z
m117 -14 c-5 -11 -15 -23 -22 -27 -7 -5 -8 -2 -3 7 21 37 44 55 25 20z m38 -1
c-7 -11 -18 -22 -26 -25 -8 -3 -6 4 5 20 21 29 38 34 21 5z m208 -16 c-6 -16
-8 -16 -26 1 -11 10 -18 21 -15 23 3 3 12 -3 21 -14 15 -18 15 -18 10 5 -3 17
-2 21 6 13 6 -6 8 -18 4 -28z m207 19 c-4 -10 -9 -11 -19 -2 -11 9 -14 8 -14
-1 0 -8 -3 -11 -6 -7 -10 10 3 23 24 23 12 0 18 -5 15 -13z m-493 -4 c13 -9
12 -10 -2 -5 -10 3 -22 -2 -27 -12 -12 -19 -14 -12 -5 12 7 19 14 20 34 5z
m340 1 c13 7 21 7 26 -2 4 -7 3 -8 -4 -4 -7 4 -12 2 -12 -4 0 -6 -4 -8 -10 -5
-5 3 -10 1 -10 -5 0 -7 -5 -6 -14 2 -8 7 -11 17 -8 23 3 5 7 4 10 -3 2 -8 9
-9 22 -2z m-405 -29 c-3 -6 -11 -11 -16 -11 -5 0 -4 6 3 14 14 16 24 13 13 -3z
m155 5 c0 -2 -8 -10 -17 -17 -16 -13 -17 -12 -4 4 13 16 21 21 21 13z m76 -28
c-9 -12 -16 -19 -16 -15 0 11 24 47 28 42 2 -2 -3 -14 -12 -27z m34 12 c-6
-11 -13 -20 -16 -20 -2 0 0 9 6 20 6 11 13 20 16 20 2 0 0 -9 -6 -20z m25 -17
c-16 -16 -25 -21 -20 -13 11 21 39 48 44 44 2 -2 -9 -16 -24 -31z m-220 7 c-3
-5 -12 -10 -18 -10 -7 0 -6 4 3 10 19 12 23 12 15 0z m291 -2 c-10 -6 -22 -6
-26 -2 -5 5 3 10 18 11 22 1 24 0 8 -9z m-191 -8 c3 -5 1 -10 -4 -10 -6 0 -11
5 -11 10 0 6 2 10 4 10 3 0 8 -4 11 -10z m-61 -32 c-4 -5 -9 -7 -12 -4 -3 3
-12 0 -21 -7 -14 -10 -14 -10 -4 4 13 16 46 23 37 7z m136 -2 c0 -2 -8 -10
-17 -17 -16 -13 -17 -12 -4 4 13 16 21 21 21 13z m1064 -177 c110 -57 159
-171 125 -293 -11 -40 -72 -113 -99 -118 -8 -2 -18 -6 -21 -11 -6 -8 -32 -15
-93 -24 -31 -5 -37 -3 -31 7 6 10 4 12 -8 7 -21 -8 -105 34 -139 70 -54 56
-71 140 -47 226 17 64 80 123 159 148 31 10 124 3 154 -12z m3623 -42 c69 -37
116 -117 116 -202 0 -140 -145 -252 -278 -215 -28 8 -65 30 -94 56 l-47 42
-166 4 c-149 3 -168 5 -189 23 -12 11 -19 14 -14 6 21 -36 -18 5 -56 59 -42
60 -90 90 -144 90 -14 0 -25 5 -25 11 0 5 4 7 10 4 5 -3 7 0 5 8 -3 7 3 25 14
39 l20 25 58 -16 c57 -15 105 -53 170 -133 23 -28 23 -28 153 -28 l130 0 0 40
c0 74 47 152 112 186 64 33 161 34 225 1z m-3022 -74 c21 -24 37 -69 19 -50
-10 9 -85 -45 -127 -92 -43 -48 -79 -116 -102 -194 -16 -55 -17 -57 -51 -57
l-35 0 6 48 c16 116 69 227 141 294 24 22 111 77 122 78 2 0 14 -12 27 -27z
m3778 -555 c107 -36 205 -97 294 -181 85 -81 117 -124 167 -223 57 -116 70
-174 71 -314 0 -104 -4 -138 -23 -200 -81 -258 -272 -452 -531 -540 -154 -51
-73 -50 -2682 -50 -2650 0 -2501 -3 -2684 57 -280 91 -484 301 -554 568 -98
374 165 800 554 896 66 17 233 18 2690 16 l2620 -2 78 -27z m-1286 -1589 c-33
-9 -185 -17 -517 -30 -162 -6 -380 -14 -485 -19 -104 -5 -325 -7 -490 -5 -450
5 -1271 37 -1343 53 -18 4 617 7 1412 7 795 0 1436 -3 1423 -6z m-3217 -35 c0
-14 -3 -14 -15 -4 -8 7 -15 14 -15 16 0 2 7 4 15 4 8 0 15 -7 15 -16z m70 -9
c-12 -14 -35 -14 -47 0 -4 4 -3 5 3 2 7 -4 17 0 24 8 7 8 16 12 22 9 5 -3 5
-11 -2 -19z m3478 0 c-3 -3 -9 2 -12 12 -6 14 -5 15 5 6 7 -7 10 -15 7 -18z
m-3513 -25 c11 -5 14 -9 7 -9 -7 -1 -11 -5 -7 -11 3 -5 11 -7 18 -4 7 2 22 -4
32 -16 21 -24 31 -25 38 -6 4 9 1 13 -6 10 -13 -5 -42 34 -32 44 9 9 95 -80
88 -92 -3 -6 -2 -8 2 -3 11 10 56 -33 48 -46 -3 -6 -1 -7 5 -4 5 4 34 -12 64
-36 176 -143 498 -296 684 -325 40 -7 65 -21 127 -70 98 -78 172 -121 283
-165 110 -44 181 -62 307 -78 111 -14 239 -4 387 31 138 34 343 140 445 233
28 26 56 40 95 48 167 35 371 115 518 205 40 24 78 42 83 38 5 -3 8 0 7 8 -2
7 3 12 9 11 7 -2 12 2 10 8 -1 6 4 14 12 17 9 3 11 0 6 -9 -5 -8 -4 -11 1 -6
5 5 9 12 9 16 0 11 186 174 192 167 4 -3 0 -6 -8 -6 -12 0 -12 -2 0 -9 9 -6
10 -11 2 -15 -6 -4 -11 -2 -11 5 0 7 -6 4 -14 -6 -21 -29 -7 -40 19 -15 13 12
24 17 26 12 2 -6 13 2 23 16 l20 27 -22 -19 c-12 -11 -22 -14 -22 -8 0 6 9 16
19 22 25 13 31 13 31 0 0 -17 -90 -109 -103 -106 -7 1 -8 1 -4 -2 5 -2 -2 -15
-14 -28 -12 -13 -26 -21 -32 -17 -6 3 -7 2 -4 -4 10 -16 -133 -119 -148 -106
-4 5 -4 2 0 -6 6 -11 4 -13 -8 -8 -9 3 -16 2 -14 -4 3 -13 -166 -106 -269
-148 -44 -18 -88 -36 -99 -41 -32 -15 -167 -50 -192 -50 -13 0 -59 -27 -104
-60 -395 -293 -828 -340 -1257 -138 -72 34 -197 109 -212 129 -22 27 -99 69
-138 75 -57 8 -216 63 -337 116 -162 71 -397 227 -387 256 2 7 -2 10 -10 7 -8
-3 -23 3 -33 15 -10 11 -13 20 -7 20 6 0 12 -5 14 -11 2 -6 12 0 23 13 18 20
18 21 1 8 -16 -13 -20 -12 -33 5 -7 11 -12 28 -10 37 6 22 -18 44 -29 27 -4
-7 -3 -9 4 -5 7 4 9 -1 7 -15 -3 -13 0 -28 6 -35 7 -8 7 -14 -1 -19 -6 -4 -9
-3 -8 2 2 4 -1 9 -6 10 -16 3 -25 27 -14 40 12 15 -3 17 -20 3 -9 -7 -9 -7 -2
2 10 12 -14 48 -33 48 -6 0 -2 -9 8 -20 33 -36 10 -21 -30 20 -39 40 -39 47 0
30z m3514 -6 c4 3 8 -1 8 -9 0 -11 -4 -12 -14 -4 -7 6 -13 17 -12 23 0 7 2 6
6 -2 2 -6 8 -10 12 -8z m-2564 -14 c637 -26 845 -28 1316 -10 135 5 338 12
450 15 112 3 251 7 309 9 100 4 104 4 70 -11 -19 -8 -59 -19 -90 -24 -63 -10
-355 -34 -605 -49 -192 -11 -248 -15 -462 -30 -122 -9 -197 -8 -375 4 -123 8
-306 20 -408 26 -379 22 -591 41 -668 61 -42 11 -79 23 -81 25 -5 5 152 0 544
-16z m2535 9 c0 -5 -4 -7 -10 -4 -5 3 -10 1 -10 -4 0 -6 -8 -11 -17 -11 -16 1
-16 2 1 15 23 18 36 19 36 4z m-2630 -119 c74 -6 225 -15 335 -20 110 -5 286
-15 392 -21 135 -7 246 -7 370 0 98 6 270 15 383 21 113 6 239 13 280 16 41 2
98 6 125 8 28 2 91 6 140 10 l90 7 -73 -25 c-107 -36 -212 -52 -562 -87 -441
-45 -789 -43 -1205 6 -16 2 -61 6 -100 10 -126 12 -314 46 -393 70 l-77 25 80
-5 c44 -3 141 -10 215 -15z m1725 -141 c-33 -10 -98 -26 -145 -35 -47 -8 -117
-22 -157 -29 -162 -32 -455 -57 -578 -51 -152 8 -570 68 -695 100 l-95 25 125
-5 c69 -3 141 -7 160 -9 19 -2 87 -6 150 -10 63 -4 158 -11 210 -15 123 -11
407 -5 640 14 102 8 235 18 295 21 61 4 112 9 114 11 2 2 11 4 20 3 9 0 -11
-9 -44 -20z m-1035 -155 c207 -17 317 -15 584 12 82 8 150 13 153 11 7 -7
-192 -57 -310 -77 -201 -34 -356 -22 -639 50 -100 26 -113 35 -38 26 30 -3
143 -13 250 -22z"/>
<path d="M4995 8450 c-13 -5 -14 -9 -5 -9 8 0 24 4 35 9 13 5 14 9 5 9 -8 0
-24 -4 -35 -9z"/>
<path d="M5124 8436 c11 -9 27 -16 35 -15 14 0 14 1 1 6 -8 3 -24 10 -35 15
-20 9 -20 9 -1 -6z"/>
<path d="M5283 8416 c0 -8 9 -11 24 -8 27 5 25 11 -4 16 -11 3 -20 -1 -20 -8z"/>
<path d="M5098 8413 c7 -3 16 -2 19 1 4 3 -2 6 -13 5 -11 0 -14 -3 -6 -6z"/>
<path d="M4760 8346 c0 -2 9 -6 20 -9 11 -3 18 -1 14 4 -5 9 -34 13 -34 5z"/>
<path d="M5365 8329 c-4 -6 -5 -12 -2 -15 2 -3 7 2 10 11 7 17 1 20 -8 4z"/>
<path d="M5198 8313 c7 -3 16 -2 19 1 4 3 -2 6 -13 5 -11 0 -14 -3 -6 -6z"/>
<path d="M4622 8298 c-7 -9 -6 -17 3 -25 10 -9 13 -7 11 13 -1 28 -1 28 -14
12z"/>
<path d="M5090 8300 c-18 -12 -2 -12 25 0 13 6 15 9 5 9 -8 0 -22 -4 -30 -9z"/>
<path d="M5495 8300 c-3 -5 -1 -10 4 -10 6 0 11 5 11 10 0 6 -2 10 -4 10 -3 0
-8 -4 -11 -10z"/>
<path d="M5045 8290 c-3 -6 1 -7 9 -4 18 7 21 14 7 14 -6 0 -13 -4 -16 -10z"/>
<path d="M5340 8290 c-9 -6 -10 -10 -3 -10 6 0 15 5 18 10 8 12 4 12 -15 0z"/>
<path d="M5371 8297 c2 -2 18 -11 34 -21 l30 -17 -24 20 c-13 12 -28 21 -34
21 -6 0 -8 -1 -6 -3z"/>
<path d="M5387 8259 c7 -7 15 -10 18 -7 3 3 -2 9 -12 12 -14 6 -15 5 -6 -5z"/>
<path d="M5427 8243 c-3 -5 11 -26 30 -48 19 -22 30 -31 25 -20 -6 11 -19 29
-31 39 -11 10 -18 23 -15 27 3 5 3 9 0 9 -3 0 -7 -3 -9 -7z"/>
<path d="M5506 8242 c-3 -5 1 -9 9 -9 8 0 12 4 9 9 -3 4 -7 8 -9 8 -2 0 -6 -4
-9 -8z"/>
<path d="M5166 8193 c11 -9 32 -12 51 -9 17 2 33 0 35 -5 2 -5 13 -11 26 -14
12 -2 20 0 17 5 -3 4 0 10 7 12 7 3 5 7 -6 11 -10 4 -15 3 -11 -3 3 -6 1 -10
-5 -10 -6 0 -13 7 -16 15 -5 12 -20 15 -62 14 -50 -2 -53 -4 -36 -16z"/>
<path d="M5130 8189 c12 -9 11 -10 -7 -6 -25 5 -48 -15 -40 -36 3 -7 -1 -21
-9 -32 -17 -23 -18 -35 -3 -35 5 0 7 5 4 10 -3 6 1 10 10 10 9 0 13 -4 10 -10
-3 -5 -2 -10 4 -10 5 0 12 6 14 13 3 6 6 -9 6 -35 1 -27 -3 -48 -9 -48 -13 0
-13 -47 -1 -55 5 -3 13 20 16 50 6 44 11 55 25 55 15 0 17 6 13 40 -5 36 -3
40 16 40 18 0 21 -6 21 -42 0 -23 3 -38 7 -34 4 4 6 23 4 42 -2 29 1 34 18 34
13 0 21 6 21 16 0 14 -8 16 -52 12 -29 -3 -45 -3 -35 -1 16 4 15 7 -8 19 -32
16 -46 18 -25 3z m-23 -15 c-3 -3 -2 -17 3 -30 5 -13 6 -24 1 -24 -5 0 -11 11
-13 25 -5 23 -1 35 10 35 3 0 3 -3 -1 -6z"/>
<path d="M5057 8143 c-4 -3 -7 -11 -7 -17 0 -6 5 -5 12 2 6 6 9 14 7 17 -3 3
-9 2 -12 -2z"/>
<path d="M5381 8125 c0 -5 9 -28 20 -50 10 -22 16 -29 13 -15 -7 28 -33 80
-33 65z"/>
<path d="M5300 8080 c-9 -6 -10 -10 -3 -10 6 0 15 5 18 10 8 12 4 12 -15 0z"/>
<path d="M5073 8057 c-18 -22 -22 -55 -7 -61 15 -6 29 28 18 45 -4 8 -3 9 4 5
7 -4 12 -3 12 3 0 16 -17 22 -27 8z"/>
<path d="M4892 8035 c0 -16 2 -22 5 -12 2 9 2 23 0 30 -3 6 -5 -1 -5 -18z"/>
<path d="M5011 8054 c1 -21 16 -47 21 -38 4 5 0 18 -8 29 -8 10 -14 15 -13 9z"/>
<path d="M5521 8014 c0 -11 3 -14 6 -6 3 7 2 16 -1 19 -3 4 -6 -2 -5 -13z"/>
<path d="M5387 7996 c-6 -14 -15 -17 -42 -14 -27 3 -32 1 -23 -9 6 -8 20 -10
37 -7 33 8 44 19 39 35 -3 9 -7 7 -11 -5z"/>
<path d="M4892 7970 c0 -19 2 -27 5 -17 2 9 2 25 0 35 -3 9 -5 1 -5 -18z"/>
<path d="M4660 7986 c0 -2 7 -7 16 -10 8 -3 12 -2 9 4 -6 10 -25 14 -25 6z"/>
<path d="M5022 7960 c0 -14 2 -19 5 -12 2 6 2 18 0 25 -3 6 -5 1 -5 -13z"/>
<path d="M4778 7963 c7 -3 16 -2 19 1 4 3 -2 6 -13 5 -11 0 -14 -3 -6 -6z"/>
<path d="M5288 7963 c7 -3 16 -2 19 1 4 3 -2 6 -13 5 -11 0 -14 -3 -6 -6z"/>
<path d="M4778 7943 c7 -3 16 -2 19 1 4 3 -2 6 -13 5 -11 0 -14 -3 -6 -6z"/>
<path d="M5295 7940 c27 -12 43 -12 25 0 -8 5 -22 9 -30 9 -10 0 -8 -3 5 -9z"/>
<path d="M4855 7910 l30 -8 -35 -2 -35 -2 30 -9 c20 -6 32 -5 37 4 14 22 9 27
-24 26 l-33 -1 30 -8z"/>
<path d="M5026 7907 c3 -10 9 -15 12 -12 3 3 0 11 -7 18 -10 9 -11 8 -5 -6z"/>
<path d="M5089 7901 c14 -12 19 -25 15 -37 -5 -18 -5 -18 6 -1 9 15 8 22 -6
38 -9 10 -22 19 -27 19 -6 0 0 -8 12 -19z"/>
<path d="M4358 7853 c7 -3 16 -2 19 1 4 3 -2 6 -13 5 -11 0 -14 -3 -6 -6z"/>
<path d="M4461 7851 c-10 -7 -7 -9 12 -8 14 1 23 5 20 10 -6 9 -15 9 -32 -2z"/>
<path d="M4619 7828 c-1 -2 -3 -20 -4 -41 -1 -24 2 -36 9 -34 6 2 10 12 8 22
-2 10 1 14 7 10 7 -4 8 0 4 10 -5 14 -8 14 -15 3 -7 -9 -8 -7 -5 10 4 18 1 30
-4 20z"/>
<path d="M5120 7811 c0 -7 -5 -9 -12 -5 -7 5 -8 3 -3 -5 5 -9 10 -10 18 -2 6
6 8 14 4 18 -4 3 -7 1 -7 -6z"/>
<path d="M5160 7801 c0 -6 5 -11 11 -11 6 0 9 -9 6 -20 -3 -11 -1 -18 4 -14
14 8 11 30 -6 44 -10 9 -15 9 -15 1z"/>
<path d="M4583 7765 c-9 -27 -9 -35 0 -32 7 2 12 10 12 18 0 8 3 16 7 19 4 3
3 11 -1 18 -5 8 -11 0 -18 -23z"/>
<path d="M4170 7745 c-11 -13 -10 -14 4 -9 9 3 16 10 16 15 0 13 -6 11 -20 -6z"/>
<path d="M4410 7706 c0 -2 7 -7 16 -10 8 -3 12 -2 9 4 -6 10 -25 14 -25 6z"/>
<path d="M4076 7618 c3 -4 11 -5 19 -1 21 7 19 12 -4 10 -11 0 -18 -5 -15 -9z"/>
<path d="M4076 7575 c-3 -8 -1 -15 4 -15 13 0 22 18 11 24 -5 3 -11 -1 -15 -9z"/>
<path d="M4174 7519 c-4 -8 -3 -9 4 -5 16 10 15 -5 -2 -26 -7 -10 -16 -15 -20
-11 -4 4 -4 -1 0 -10 6 -16 9 -14 25 13 10 16 19 33 20 37 1 13 -19 14 -27 2z"/>
<path d="M4136 7507 c3 -10 9 -15 12 -12 3 3 0 11 -7 18 -10 9 -11 8 -5 -6z"/>
<path d="M4207 7493 c-4 -3 -7 -11 -7 -16 0 -6 3 -8 6 -5 3 3 20 -7 37 -23 39
-36 71 -45 100 -30 22 11 22 11 -3 9 -34 -2 -94 25 -112 51 -8 11 -18 18 -21
14z"/>
<path d="M4441 7466 c-16 -17 -18 -23 -7 -23 8 0 14 5 13 11 -1 5 3 10 10 11
16 0 26 12 15 19 -5 3 -19 -5 -31 -18z"/>
<path d="M4489 7438 c-7 -24 -4 -35 10 -35 23 0 55 23 42 32 -6 3 -11 1 -11
-5 0 -6 -4 -8 -10 -5 -5 3 -10 1 -10 -5 0 -6 -5 -8 -10 -5 -6 4 -8 11 -5 16 4
5 4 9 1 9 -3 0 -6 -1 -7 -2z"/>
<path d="M4200 7383 c0 -6 4 -14 9 -17 14 -9 42 5 35 16 -4 6 -10 5 -15 -3 -8
-12 -11 -11 -19 1 -6 9 -10 10 -10 3z"/>
<path d="M5878 8083 c7 -3 16 -2 19 1 4 3 -2 6 -13 5 -11 0 -14 -3 -6 -6z"/>
<path d="M5921 7934 c0 -11 3 -14 6 -6 3 7 2 16 -1 19 -3 4 -6 -2 -5 -13z"/>
<path d="M6133 7759 c-17 -5 -46 -26 -62 -46 -56 -68 -35 -170 42 -206 97 -46
197 16 197 122 0 94 -84 156 -177 130z"/>
<path d="M2750 7009 c0 -5 5 -7 10 -4 6 3 10 8 10 11 0 2 -4 4 -10 4 -5 0 -10
-5 -10 -11z"/>
<path d="M3489 7117 c-60 -41 -77 -113 -39 -174 44 -73 139 -83 197 -19 61 66
50 142 -27 193 -42 29 -88 29 -131 0z"/>
<path d="M4670 6902 c-52 -26 -124 -67 -159 -91 -63 -43 -231 -204 -231 -221
0 -5 26 -14 58 -20 31 -6 69 -13 84 -16 24 -5 31 0 55 41 52 88 126 180 215
268 49 48 85 87 81 87 -5 -1 -51 -22 -103 -48z"/>
<path d="M5696 6902 c73 -67 177 -191 231 -275 25 -40 47 -73 48 -75 4 -6 175
32 175 39 0 16 -154 161 -222 210 -66 46 -257 149 -275 149 -5 0 15 -22 43
-48z"/>
<path d="M5052 6912 c-67 -36 -152 -103 -210 -167 -49 -54 -162 -222 -162
-241 0 -14 25 -19 195 -39 72 -8 151 -17 176 -20 l47 -5 4 232 c3 128 8 241
13 251 10 23 -1 22 -63 -11z"/>
<path d="M5313 6908 c4 -18 9 -131 13 -250 l7 -217 41 4 c23 3 113 14 202 25
89 11 167 20 173 20 33 0 -111 200 -216 301 -70 68 -185 149 -211 149 -11 0
-13 -8 -9 -32z"/>
<path d="M4092 6327 c-52 -65 -151 -349 -152 -434 l0 -33 154 0 154 0 6 28 c2
15 8 53 11 85 9 78 51 250 71 288 8 17 13 33 11 36 -3 2 -47 11 -98 19 -52 7
-106 16 -121 19 -14 2 -31 -1 -36 -8z"/>
<path d="M6193 6321 c-56 -9 -104 -18 -107 -21 -3 -3 6 -41 19 -83 26 -80 65
-280 65 -328 l0 -28 161 -3 161 -3 -6 50 c-10 72 -51 204 -103 328 -38 91 -48
107 -66 106 -12 -1 -68 -9 -124 -18z"/>
<path d="M5750 6264 c-52 -7 -147 -18 -210 -24 -63 -5 -136 -13 -162 -16 l-48
-6 0 -469 c0 -440 1 -469 18 -469 18 0 369 -35 464 -46 l56 -7 21 66 c48 157
76 374 66 512 -11 148 -76 442 -103 466 -4 3 -50 0 -102 -7z"/>
<path d="M4557 6233 c-21 -56 -54 -196 -68 -293 -29 -211 -1 -482 68 -668 15
-41 19 -43 47 -39 17 3 136 15 264 28 l232 23 0 468 c0 260 -4 468 -9 468 -5
0 -116 11 -247 25 -132 14 -246 25 -255 25 -10 0 -23 -15 -32 -37z"/>
<path d="M3945 5588 c18 -114 85 -322 113 -350 5 -5 60 -13 123 -18 160 -14
163 -13 154 8 -27 65 -85 336 -85 397 0 3 -70 5 -156 5 l-156 0 7 -42z"/>
<path d="M6155 5518 c-10 -62 -30 -158 -45 -212 l-28 -99 107 7 c180 11 176
10 204 75 36 80 97 293 97 337 0 2 -71 4 -158 4 l-159 0 -18 -112z"/>
<path d="M4920 5044 c-52 -7 -130 -18 -172 -25 l-77 -11 21 -42 c75 -148 235
-318 358 -379 40 -21 75 -36 77 -34 1 2 -1 26 -7 53 -5 27 -13 140 -16 252
l-7 202 -41 -1 c-23 -1 -84 -7 -136 -15z"/>
<path d="M5326 4903 c-4 -87 -9 -200 -12 -251 l-6 -92 48 20 c118 51 292 214
372 350 24 39 42 74 40 75 -6 6 -378 55 -414 55 -21 0 -22 -6 -28 -157z"/>
<path d="M4353 4927 c-40 -5 -73 -13 -73 -18 0 -31 207 -213 311 -273 46 -26
164 -76 182 -76 5 0 -18 22 -50 49 -71 61 -168 173 -225 263 -24 37 -50 67
-58 66 -8 0 -48 -5 -87 -11z"/>
<path d="M5929 4869 c-57 -99 -110 -171 -183 -248 l-61 -64 102 52 c56 29 130
74 165 100 70 54 203 189 194 198 -3 4 -25 9 -48 13 -24 4 -62 11 -84 15 l-42
7 -43 -73z"/>
<path d="M4086 7063 c-11 -11 -6 -23 9 -23 8 0 15 4 15 9 0 13 -16 22 -24 14z"/>
<path d="M3518 6083 c23 -2 59 -2 80 0 20 2 1 4 -43 4 -44 0 -61 -2 -37 -4z"/>
<path d="M8800 5595 c0 -8 2 -15 4 -15 2 0 6 7 10 15 3 8 1 15 -4 15 -6 0 -10
-7 -10 -15z"/>
<path d="M8866 5541 c-4 -5 -2 -20 2 -33 5 -12 7 -29 4 -37 -3 -8 0 -11 7 -7
13 9 15 56 1 56 -5 0 -7 7 -4 15 7 16 -1 21 -10 6z"/>
<path d="M8820 5533 c0 -5 5 -15 10 -23 8 -12 10 -11 10 8 0 12 -4 22 -10 22
-5 0 -10 -3 -10 -7z"/>
<path d="M8822 5470 c0 -14 2 -19 5 -12 2 6 2 18 0 25 -3 6 -5 1 -5 -13z"/>
<path d="M8886 5445 c-3 -9 -6 -22 -5 -28 0 -7 5 -1 10 12 5 13 8 26 5 28 -2
2 -6 -3 -10 -12z"/>
<path d="M8892 5374 c-1 -17 -4 -47 -7 -65 -5 -31 -5 -32 5 -9 6 13 9 42 7 65
-3 32 -4 34 -5 9z"/>
<path d="M8820 5276 c0 -2 7 -6 15 -10 8 -3 15 -1 15 4 0 6 -7 10 -15 10 -8 0
-15 -2 -15 -4z"/>
<path d="M8816 5225 c-9 -26 -7 -32 5 -12 6 10 9 21 6 23 -2 3 -7 -2 -11 -11z"/>
<path d="M8820 5085 c-7 -9 -11 -17 -9 -20 3 -2 10 5 17 15 14 24 10 26 -8 5z"/>
<path d="M2117 6033 c-11 -10 14 -33 36 -33 19 0 19 1 -3 20 -26 23 -25 22
-33 13z"/>
<path d="M1940 5901 c0 -5 5 -13 10 -16 6 -3 10 -2 10 4 0 5 -4 13 -10 16 -5
3 -10 2 -10 -4z"/>
<path d="M1826 5762 c-3 -5 1 -9 9 -9 8 0 12 4 9 9 -3 4 -7 8 -9 8 -2 0 -6 -4
-9 -8z"/>
<path d="M1721 5474 c0 -11 3 -14 6 -6 3 7 2 16 -1 19 -3 4 -6 -2 -5 -13z"/>
<path d="M7863 5779 c-71 -27 -155 -106 -190 -176 -21 -45 -28 -74 -31 -144
-4 -81 -2 -93 25 -151 54 -115 123 -173 241 -203 143 -37 320 33 398 157 28
44 54 136 54 189 0 64 -37 160 -84 220 -34 44 -61 65 -117 93 -66 33 -78 36
-158 35 -61 0 -101 -6 -138 -20z m260 -47 c58 -26 126 -93 158 -157 35 -72 33
-180 -3 -250 -34 -64 -90 -118 -153 -147 -75 -34 -201 -33 -271 4 -62 33 -109
84 -142 156 -21 47 -24 65 -20 132 5 93 33 147 108 212 89 77 216 97 323 50z"/>
<path d="M7933 5662 c-44 -14 -110 -70 -128 -108 -40 -85 -32 -170 22 -234 89
-104 229 -108 325 -10 59 61 75 112 60 189 -14 68 -53 118 -109 143 -48 21
-135 31 -170 20z m211 -61 c23 -25 17 -57 -9 -53 -39 6 -45 12 -45 42 0 36 27
41 54 11z"/>
<path d="M2358 5783 c6 -2 10 -9 7 -13 -3 -5 9 -8 26 -8 31 1 31 1 8 14 -13 7
-31 13 -39 13 -10 0 -11 -2 -2 -6z"/>
<path d="M2491 5786 c12 -10 60 -16 54 -6 -3 5 -18 10 -32 10 -15 0 -24 -2
-22 -4z"/>
<path d="M2590 5766 c0 -3 15 -15 33 -27 23 -17 28 -18 18 -6 -14 18 -51 42
-51 33z"/>
<path d="M2265 5750 c-3 -5 -1 -10 4 -10 6 0 11 5 11 10 0 6 -2 10 -4 10 -3 0
-8 -4 -11 -10z"/>
<path d="M2303 5753 c-15 -5 -17 -23 -4 -23 5 0 11 7 15 15 3 8 4 15 3 14 -1
0 -8 -3 -14 -6z"/>
<path d="M2237 5734 c-4 -4 -4 -11 -1 -15 7 -12 44 -11 44 0 0 5 -10 7 -22 3
-14 -3 -19 -2 -14 6 8 13 3 16 -7 6z"/>
<path d="M2590 5726 c0 -2 7 -7 16 -10 8 -3 12 -2 9 4 -6 10 -25 14 -25 6z"/>
<path d="M2190 5705 c-7 -9 -10 -18 -6 -22 3 -3 6 -1 6 7 0 10 4 10 18 -1 15
-12 16 -12 5 2 -7 9 -10 19 -6 22 3 4 4 7 1 7 -3 0 -11 -7 -18 -15z"/>
<path d="M2569 5707 c8 -10 26 -17 45 -16 l31 1 -31 7 c-17 4 -37 12 -45 16
-12 8 -12 6 0 -8z"/>
<path d="M2232 5695 c2 -3 24 -7 48 -9 29 -3 39 -1 29 5 -14 9 -86 13 -77 4z"/>
<path d="M2360 5690 c0 -5 9 -10 20 -10 11 0 20 -4 20 -10 0 -5 18 -10 40 -10
33 0 40 3 40 20 0 18 -7 20 -60 20 -33 0 -60 -4 -60 -10z"/>
<path d="M2136 5627 c3 -10 9 -15 12 -12 3 3 0 11 -7 18 -10 9 -11 8 -5 -6z"/>
<path d="M2220 5630 c0 -5 5 -10 10 -10 6 0 10 5 10 10 0 6 -4 10 -10 10 -5 0
-10 -4 -10 -10z"/>
<path d="M2113 5607 c0 -8 6 -14 14 -14 9 0 10 4 2 14 -6 7 -12 13 -14 13 -1
0 -2 -6 -2 -13z"/>
<path d="M2388 5593 c7 -3 16 -2 19 1 4 3 -2 6 -13 5 -11 0 -14 -3 -6 -6z"/>
<path d="M2141 5565 c-1 -17 -3 -17 -11 -5 -7 10 -10 11 -10 2 0 -7 7 -15 15
-18 9 -4 13 -13 10 -24 -3 -9 2 -23 10 -30 13 -11 14 -10 9 4 -5 13 -2 15 12
10 18 -6 18 -6 1 7 -9 8 -21 28 -26 44 -7 21 -10 24 -10 10z"/>
<path d="M2348 5573 c7 -3 16 -2 19 1 4 3 -2 6 -13 5 -11 0 -14 -3 -6 -6z"/>
<path d="M2000 5555 c0 -5 5 -17 10 -25 5 -8 10 -10 10 -5 0 6 -5 17 -10 25
-5 8 -10 11 -10 5z"/>
<path d="M2408 5543 c12 -2 30 -2 40 0 9 3 -1 5 -23 4 -22 0 -30 -2 -17 -4z"/>
<path d="M2093 5494 c-12 -27 -8 -31 12 -11 7 8 10 19 6 25 -4 6 -11 1 -18
-14z"/>
<path d="M2800 5500 c0 -5 5 -10 11 -10 5 0 7 5 4 10 -3 6 -8 10 -11 10 -2 0
-4 -4 -4 -10z"/>
<path d="M2200 5489 c0 -5 5 -7 10 -4 6 3 10 8 10 11 0 2 -4 4 -10 4 -5 0 -10
-5 -10 -11z"/>
<path d="M2665 5490 c3 -5 11 -10 16 -10 6 0 7 5 4 10 -3 6 -11 10 -16 10 -6
0 -7 -4 -4 -10z"/>
<path d="M2026 5476 c3 -9 14 -16 23 -16 14 0 14 -2 1 -11 -13 -9 -13 -10 0
-6 17 4 21 32 5 32 -5 0 -16 4 -22 8 -9 6 -11 3 -7 -7z"/>
<path d="M2224 5474 c-18 -14 -18 -15 4 -4 12 6 22 13 22 15 0 8 -5 6 -26 -11z"/>
<path d="M2161 5443 c-2 -20 16 -24 30 -5 13 15 12 16 -3 4 -13 -10 -17 -10
-21 0 -4 9 -6 9 -6 1z"/>
<path d="M2800 5360 c0 -40 4 -70 10 -70 6 0 10 30 10 70 0 40 -4 70 -10 70
-6 0 -10 -30 -10 -70z"/>
<path d="M2884 5364 c3 -9 6 -19 6 -22 0 -9 20 21 20 31 0 4 -7 7 -16 7 -11 0
-14 -5 -10 -16z"/>
<path d="M2231 5357 c-8 -10 -7 -14 2 -14 8 0 14 6 14 14 0 7 -1 13 -2 13 -2
0 -8 -6 -14 -13z"/>
<path d="M2760 5319 c0 -24 4 -38 10 -34 6 3 10 22 10 41 0 19 -4 34 -10 34
-5 0 -10 -18 -10 -41z"/>
<path d="M2170 5311 c-5 -11 -6 -22 -1 -25 13 -8 20 4 14 22 -4 12 2 9 21 -8
15 -13 25 -18 21 -10 -3 9 -14 21 -25 28 -16 10 -21 9 -30 -7z"/>
<path d="M2881 5305 c-1 -21 14 -32 34 -24 19 7 19 8 -2 8 -12 1 -24 7 -26 14
-3 6 -6 8 -6 2z"/>
<path d="M2257 5243 c8 -12 20 -20 26 -16 6 3 7 1 3 -5 -10 -16 -33 -15 -39 1
-2 7 -3 6 -3 -3 1 -9 12 -15 28 -16 15 -1 26 4 25 10 -1 6 4 10 11 9 23 -5 12
5 -27 24 l-39 20 15 -24z"/>
<path d="M2359 5268 c-6 -20 -3 -45 7 -45 9 0 10 5 4 17 -5 10 -6 20 -3 24 3
3 3 6 0 6 -4 0 -7 -1 -8 -2z"/>
<path d="M2750 5163 c-13 -15 -12 -16 4 -10 10 4 22 7 27 7 6 0 7 5 4 10 -9
14 -18 12 -35 -7z"/>
<path d="M2324 5132 c4 -3 14 -7 22 -8 9 -1 13 0 10 4 -4 3 -14 7 -22 8 -9 1
-13 0 -10 -4z"/>
<path d="M7050 5655 c0 -8 5 -15 10 -15 6 0 10 7 10 15 0 8 -4 15 -10 15 -5 0
-10 -7 -10 -15z"/>
<path d="M7148 5113 c18 -2 45 -2 60 0 15 2 0 4 -33 4 -33 0 -45 -2 -27 -4z"/>
<path d="M3359 4647 c-64 -43 -75 -134 -23 -196 63 -75 183 -60 229 29 19 36
19 71 1 115 -30 72 -138 99 -207 52z"/>
<path d="M7012 4640 c-55 -13 -102 -70 -102 -125 0 -58 54 -119 116 -131 44
-8 86 10 124 53 83 94 -11 232 -138 203z"/>
<path d="M2797 4022 c-32 -2 -47 -7 -44 -15 5 -17 1007 -23 1007 -6 0 8 14 10
40 6 22 -3 40 -1 40 4 0 5 -19 9 -42 10 -119 3 -960 4 -1001 1z"/>
<path d="M3920 4020 c0 -4 51 -12 113 -19 81 -9 260 -11 657 -8 681 6 705 6
1040 -3 154 -4 -492 -7 -1462 -8 -1265 -1 -1749 -4 -1780 -12 -62 -17 -166
-74 -234 -128 -146 -118 -247 -349 -229 -524 15 -160 81 -294 205 -419 125
-127 255 -196 441 -236 80 -17 210 -18 2549 -18 l2465 0 90 23 c118 29 256 99
341 170 309 259 350 638 101 921 -78 89 -149 141 -246 183 l-76 33 -910 5
c-522 3 -728 6 -484 8 324 1 428 5 438 15 8 7 15 8 17 2 3 -6 116 -10 317 -9
377 2 370 2 363 13 -7 11 53 11 -2033 15 -926 1 -1683 0 -1683 -4z m200 -310
c36 -11 82 -31 103 -45 l38 -26 -42 -77 c-23 -42 -43 -79 -45 -81 -2 -2 -11 5
-21 14 -51 51 -157 74 -236 51 -104 -30 -161 -108 -161 -221 0 -183 200 -279
366 -176 l47 30 19 -27 c11 -15 31 -50 46 -79 l26 -52 -45 -27 c-84 -49 -159
-66 -265 -62 -125 6 -203 41 -283 127 -66 72 -93 125 -107 214 -27 171 59 336
213 412 115 56 219 63 347 25z m2925 15 c114 -15 235 -107 291 -220 27 -55 29
-69 29 -170 0 -102 -2 -115 -31 -175 -39 -82 -108 -151 -193 -193 -62 -30 -72
-32 -176 -32 -103 0 -114 2 -177 32 -163 77 -261 258 -230 423 34 184 158 308
342 340 25 4 56 6 70 5 14 -2 48 -7 75 -10z m-1473 -24 c31 -12 67 -30 79 -40
l22 -18 -36 -60 c-20 -33 -37 -66 -37 -72 0 -16 -6 -14 -53 13 -78 45 -194 50
-224 10 -33 -45 -2 -73 123 -112 158 -49 218 -98 245 -197 16 -54 -1 -132 -40
-189 -82 -119 -318 -142 -485 -47 -72 40 -74 47 -31 111 20 30 41 60 46 67 7
8 25 2 66 -23 88 -53 208 -59 245 -14 41 51 13 77 -135 124 -176 55 -241 118
-241 231 0 110 59 189 173 232 55 20 212 12 283 -16z m-2692 -66 l0 -85 -90 0
-90 0 0 -305 0 -305 -95 0 -95 0 0 305 0 305 -85 0 -85 0 0 85 0 85 270 0 270
0 0 -85z m610 0 l0 -85 -165 0 -165 0 0 -65 0 -65 138 0 c76 0 141 -2 143 -4
2 -2 3 -41 1 -85 l-4 -81 -139 0 -139 0 0 -70 0 -70 165 0 165 0 0 -85 0 -85
-260 0 -260 0 0 390 0 390 260 0 260 0 0 -85z m1060 -64 l0 -149 48 -6 c26 -3
83 -4 127 -2 l80 4 3 151 3 151 94 0 95 0 0 -390 0 -390 -95 0 -95 0 0 150 0
150 -130 0 -130 0 0 -150 0 -150 -95 0 -95 0 0 390 0 390 95 0 95 0 0 -149z
m1450 -1 c0 -148 0 -150 23 -152 12 -1 68 -2 124 -2 l103 -1 0 153 0 152 100
0 100 0 -2 -387 -3 -388 -98 -3 -98 -3 1 138 c1 76 1 144 1 151 -1 9 -33 12
-126 12 l-125 0 0 -150 0 -150 -100 0 -99 0 -1 390 0 390 100 0 100 0 0 -150z
m1850 139 c68 -15 138 -64 175 -123 27 -45 30 -57 30 -135 0 -69 -5 -94 -22
-126 -48 -91 -122 -127 -270 -133 l-103 -4 0 -124 0 -124 -95 0 -95 0 0 390 0
390 165 0 c90 0 187 -5 215 -11z"/>
<path d="M6903 3546 c-90 -29 -140 -92 -150 -190 -15 -147 91 -258 233 -243
138 14 222 145 183 284 -18 66 -88 135 -151 151 -56 14 -62 14 -115 -2z"/>
<path d="M7660 3452 l0 -100 28 0 c124 0 182 31 182 98 0 27 -8 48 -24 67 -22
25 -31 28 -105 31 l-81 4 0 -100z"/>
<path d="M2685 4010 c-13 -6 -15 -9 -5 -9 8 0 22 4 30 9 18 12 2 12 -25 0z"/>
<path d="M7940 3976 c0 -2 7 -7 16 -10 8 -3 12 -2 9 4 -6 10 -25 14 -25 6z"/>
<path d="M2270 2786 c0 -3 15 -15 33 -27 23 -17 28 -18 18 -6 -14 18 -51 42
-51 33z"/>
<path d="M6869 2313 c-13 -16 -12 -17 4 -4 16 13 21 21 13 21 -2 0 -10 -8 -17
-17z"/>
<path d="M5128 1563 c6 -2 18 -2 25 0 6 3 1 5 -13 5 -14 0 -19 -2 -12 -5z"/>
<path d="M5248 1553 c6 -2 18 -2 25 0 6 3 1 5 -13 5 -14 0 -19 -2 -12 -5z"/>
<path d="M7034 8112 c-13 -9 -34 -46 -34 -62 0 -20 49 -60 73 -60 53 0 87 79
49 113 -19 17 -68 22 -88 9z"/>
<path d="M3023 8075 c-38 -16 -55 -63 -40 -108 11 -33 34 -47 81 -47 66 0 100
83 54 134 -30 32 -56 38 -95 21z"/>
<path d="M6993 7899 c-7 -7 -13 -20 -13 -29 0 -34 22 -40 151 -40 208 0 372
-36 544 -121 277 -135 480 -382 575 -699 21 -69 33 -137 37 -198 6 -93 17
-122 47 -122 42 0 49 75 21 236 -70 398 -364 761 -730 900 -154 58 -248 75
-440 81 -140 4 -183 2 -192 -8z"/>
<path d="M3316 7864 c-22 -22 -20 -50 6 -68 12 -9 26 -16 30 -16 13 0 48 39
48 54 0 20 -28 46 -50 46 -10 0 -26 -7 -34 -16z"/>
<path d="M2995 7836 c-180 -52 -319 -122 -449 -226 -225 -182 -377 -440 -430
-731 -21 -115 -24 -222 -7 -243 34 -41 71 -1 71 76 0 127 44 305 107 433 158
318 418 529 767 623 99 27 101 28 101 57 0 28 -3 30 -40 32 -22 1 -76 -8 -120
-21z"/>
<path d="M2002 7763 c-16 -57 -79 -123 -118 -123 -14 0 -22 -4 -19 -10 3 -5
15 -10 25 -10 32 0 88 -58 109 -113 11 -29 20 -44 20 -34 1 25 35 88 59 110
11 11 37 25 58 32 l37 12 -35 12 c-48 16 -87 60 -107 121 l-17 51 -12 -48z"/>
<path d="M8426 7001 c-40 -44 24 -95 66 -53 20 20 20 22 4 46 -20 31 -46 33
-70 7z"/>
<path d="M1773 6813 c-19 -7 -16 -60 3 -67 26 -10 34 -7 46 19 17 38 -10 64
-49 48z"/>
<path d="M7997 2451 c-214 -103 -475 -152 -679 -126 -54 7 -57 6 -74 -20 -18
-27 -18 -28 7 -48 23 -18 35 -19 199 -14 250 8 411 47 608 146 71 36 83 53 57
81 -23 26 -26 25 -118 -19z"/>
<path d="M2366 2464 c-16 -41 -6 -53 71 -90 194 -91 398 -137 597 -132 100 3
121 6 130 21 8 12 8 22 0 35 -9 14 -33 18 -150 23 -76 4 -168 12 -204 19 -81
15 -229 62 -337 106 -94 39 -99 40 -107 18z"/>
</g>
</svg>
